<svg 
          width="69.01172637939453" 
          height="71.01360321044922" fill="none" 
          xmlns="http://www.w3.org/2000/svg">
          <path d="M 36.14059697131608 42.08906684623003 L 60.23206310376979 15.736200669490984 L 10.586673837785877 15.736200669490984 L 10.586673837785877 26.716845219024677 L 35.41106606270601 26.716845219024677 L 10.586673837785877 53.80107319104403 L 68.99660790915347 53.80107319104403 L 68.99660790915347 56.72652037216527 C 68.99660790915345 58.60272684996142 68.6279899469752 60.46056295734949 67.91179553865757 62.19395162186041 C 67.19560113033994 63.927340286371326 66.14585660491974 65.50233572235608 64.822501826762 66.82901404696445 C 63.49914704860425 68.15569237157281 61.92809723409677 69.20807328350787 60.19905099203793 69.92606638211099 C 58.4700047499791 70.6440594807141 56.616822826266166 71.01360321044922 54.745316552931214 71.01360321044922 L 14.251291356222255 71.01360321044922 C 10.471613930438625 71.0136032104492 6.8467422619029 69.5083617841137 4.174106729586266 66.82901404696445 C 1.5014711972696322 64.14966630981519 2.410988463896293e-15 60.51569028907847 0 56.72652037216527 L 3.013735579870366e-16 14.287082838283949 C 4.520603369805549e-16 10.497912921370744 1.5014711972696322 6.863937549454223 4.174106729586266 4.184589812304966 C 6.8467422619029 1.5052420751557092 10.471613930438625 4.078760997031656e-15 14.251291356222255 0 L 54.758892110798364 3.021304442245671e-16 C 58.538569536581996 2.4170435537965368e-15 62.1634418523125 1.5052420751557092 64.83607738462914 4.184589812304966 C 67.50871291694577 6.863937549454223 69.01018346702061 10.497912921370744 69.01018346702062 14.287082838283949 L 69.01018346702062 22.79129881345297 C 69.01018346702062 24.492142008486773 69.05429460531475 26.12155026296789 68.67086700615819 27.77476989395816 C 68.04991786821805 30.363453282217023 66.5942483629274 32.57114686048724 65.02660635257465 34.68359412169563 C 63.72985726674385 36.458674998291535 62.210842560363574 38.059249521389106 60.50691378621733 39.44595506779028 C 58.756040899942754 40.84744982156892 56.68281452819179 41.90877674736604 54.42296695062356 42.085664433161355 L 36.14059697131608 42.08906684623003 Z" fill="rgb(201.00000321865082,197.0000034570694,46.000001057982445)"/>
        </svg>